<svg width="20" height="20" viewBox="0 0 20 20" fill="none" xmlns="http://www.w3.org/2000/svg">
<path d="M6.38864 5.13965V6.11182H4.93039C4.12502 6.11182 3.47214 6.7647 3.47214 7.57007V16.3196C3.47214 17.125 4.12502 17.7778 4.93039 17.7778H11.7356C12.5409 17.7778 13.1938 17.125 13.1938 16.3196V14.8613H14.166V16.3196C14.166 17.6619 13.0778 18.75 11.7356 18.75H4.93039C3.58811 18.75 2.49997 17.6619 2.49997 16.3196V7.57007C2.49997 6.22779 3.58811 5.13965 4.93039 5.13965H6.38864ZM14.166 2.22315H8.81906C8.01369 2.22315 7.36081 2.87603 7.36081 3.6814V12.4309C7.36081 13.2363 8.01369 13.8892 8.81906 13.8892H15.6242C16.4296 13.8892 17.0825 13.2363 17.0825 12.4309V5.13965H14.6521C14.3836 5.13965 14.166 4.92203 14.166 4.65357V2.22315ZM18.0547 4.68077V12.4309C18.0547 13.7732 16.9665 14.8613 15.6242 14.8613H8.81906C7.47678 14.8613 6.38864 13.7732 6.38864 12.4309V3.6814C6.38864 2.33912 7.47678 1.25098 8.81906 1.25098H14.6249C14.7539 1.2428 14.8883 1.28582 14.9958 1.39335L17.9123 4.30986C18.0198 4.41739 18.0628 4.55172 18.0547 4.68077ZM15.1382 4.16749H16.3951L15.1382 2.91058V4.16749ZM9.79123 10.9727C9.52277 10.9727 9.30515 10.755 9.30515 10.4866C9.30515 10.2181 9.52277 10.0005 9.79123 10.0005H11.7356C12.004 10.0005 12.2216 10.2181 12.2216 10.4866C12.2216 10.755 12.004 10.9727 11.7356 10.9727H9.79123ZM9.79123 9.02833C9.52277 9.02833 9.30515 8.8107 9.30515 8.54224C9.30515 8.27379 9.52277 8.05616 9.79123 8.05616H14.6521C14.9205 8.05616 15.1382 8.27379 15.1382 8.54224C15.1382 8.8107 14.9205 9.02833 14.6521 9.02833H9.79123ZM9.79123 7.08399C9.52277 7.08399 9.30515 6.86636 9.30515 6.59791C9.30515 6.32945 9.52277 6.11182 9.79123 6.11182H14.6521C14.9205 6.11182 15.1382 6.32945 15.1382 6.59791C15.1382 6.86636 14.9205 7.08399 14.6521 7.08399H9.79123Z" fill="#A3A3A3"/>
</svg>
