<svg width="20" height="20" viewBox="0 0 20 20" fill="none" xmlns="http://www.w3.org/2000/svg">
<path d="M12.6667 18.6666H7.33333C6.44928 18.6666 5.60143 18.3155 4.97631 17.6903C4.35119 17.0652 4 16.2174 4 15.3333V7.33332C4 7.1565 4.07024 6.98694 4.19526 6.86191C4.32029 6.73689 4.48986 6.66665 4.66667 6.66665C4.84348 6.66665 5.01305 6.73689 5.13807 6.86191C5.2631 6.98694 5.33333 7.1565 5.33333 7.33332V15.3333C5.33333 15.8637 5.54405 16.3725 5.91912 16.7475C6.29419 17.1226 6.8029 17.3333 7.33333 17.3333H12.6667C13.1971 17.3333 13.7058 17.1226 14.0809 16.7475C14.456 16.3725 14.6667 15.8637 14.6667 15.3333V7.33332C14.6667 7.1565 14.7369 6.98694 14.8619 6.86191C14.987 6.73689 15.1565 6.66665 15.3333 6.66665C15.5101 6.66665 15.6797 6.73689 15.8047 6.86191C15.9298 6.98694 16 7.1565 16 7.33332V15.3333C16 16.2174 15.6488 17.0652 15.0237 17.6903C14.3986 18.3155 13.5507 18.6666 12.6667 18.6666Z" fill="#FF6363"/>
<path d="M16.6667 5.33332H3.33332C3.15651 5.33332 2.98694 5.26308 2.86192 5.13806C2.73689 5.01303 2.66666 4.84346 2.66666 4.66665C2.66666 4.48984 2.73689 4.32027 2.86192 4.19525C2.98694 4.07022 3.15651 3.99998 3.33332 3.99998H16.6667C16.8435 3.99998 17.013 4.07022 17.1381 4.19525C17.2631 4.32027 17.3333 4.48984 17.3333 4.66665C17.3333 4.84346 17.2631 5.01303 17.1381 5.13806C17.013 5.26308 16.8435 5.33332 16.6667 5.33332Z" fill="#FF6363"/>
<path d="M12.6667 5.33333H7.33332C7.15651 5.33333 6.98694 5.26309 6.86192 5.13807C6.73689 5.01304 6.66666 4.84347 6.66666 4.66666V3.33333C6.66666 2.8029 6.87737 2.29419 7.25244 1.91911C7.62752 1.54404 8.13622 1.33333 8.66666 1.33333H11.3333C11.8638 1.33333 12.3725 1.54404 12.7475 1.91911C13.1226 2.29419 13.3333 2.8029 13.3333 3.33333V4.66666C13.3333 4.84347 13.2631 5.01304 13.1381 5.13807C13.013 5.26309 12.8435 5.33333 12.6667 5.33333ZM7.99999 4H12V3.33333C12 3.15652 11.9298 2.98695 11.8047 2.86192C11.6797 2.7369 11.5101 2.66666 11.3333 2.66666H8.66666C8.48985 2.66666 8.32028 2.7369 8.19525 2.86192C8.07023 2.98695 7.99999 3.15652 7.99999 3.33333V4Z" fill="#FF6363"/>
<path d="M8.66667 14.6667C8.48986 14.6667 8.32029 14.5964 8.19526 14.4714C8.07024 14.3464 8 14.1768 8 14V9.33334C8 9.15653 8.07024 8.98696 8.19526 8.86193C8.32029 8.73691 8.48986 8.66667 8.66667 8.66667C8.84348 8.66667 9.01305 8.73691 9.13807 8.86193C9.2631 8.98696 9.33333 9.15653 9.33333 9.33334V14C9.33333 14.1768 9.2631 14.3464 9.13807 14.4714C9.01305 14.5964 8.84348 14.6667 8.66667 14.6667Z" fill="#FF6363"/>
<path d="M11.3333 14.6667C11.1565 14.6667 10.9869 14.5964 10.8619 14.4714C10.7369 14.3464 10.6667 14.1768 10.6667 14V9.33334C10.6667 9.15653 10.7369 8.98696 10.8619 8.86193C10.9869 8.73691 11.1565 8.66667 11.3333 8.66667C11.5101 8.66667 11.6797 8.73691 11.8047 8.86193C11.9298 8.98696 12 9.15653 12 9.33334V14C12 14.1768 11.9298 14.3464 11.8047 14.4714C11.6797 14.5964 11.5101 14.6667 11.3333 14.6667Z" fill="#FF6363"/>
</svg>
